# xmcd CD database file
#
# Track frame offsets:
#	150
#	40557
#	63162
#	115755
#	141177
#	172952
#	197147
#	222917
#	250775
#
# Disc length: 4047 seconds
#
# Revision: 2
# Processed by: cddbd v1.5.2PL0 Copyright (c) Steve Scherf et al.
# Submitted via: CDex 1.81
#
DISCID=770fcd09
DTITLE=Hans Dulfer - Papa'S Got A Brand New Sax (Live In Japan)
DYEAR=1999
DGENRE=Jazz+Funk
TTITLE0=Big boy
TTITLE1=Dig!
TTITLE2=Streetfire
TTITLE3=Party pooper
TTITLE4=Grand slam
TTITLE5=Finger poppin' daddies
TTITLE6=Madness
TTITLE7=Hyperbeat!
TTITLE8=Streetbeats
EXTD=YEAR: 1999
EXTT0=
EXTT1=
EXTT2=
EXTT3=
EXTT4=
EXTT5=
EXTT6=
EXTT7=
EXTT8=
PLAYORDER=
